<?xml version="1.0" standalone="no"?>
<!DOCTYPE svg PUBLIC "-//W3C//DTD SVG 20010904//EN"
 "http://www.w3.org/TR/2001/REC-SVG-20010904/DTD/svg10.dtd">
<svg version="1.0" xmlns="http://www.w3.org/2000/svg"
 width="1072.000000pt" height="1072.000000pt" viewBox="0 0 1072.000000 1072.000000"
 preserveAspectRatio="xMidYMid meet">
<metadata>
Created by potrace 1.14, written by Peter Selinger 2001-2017
</metadata>
<g transform="translate(0.000000,1072.000000) scale(0.100000,-0.100000)"
fill="#000000" stroke="none">
<path d="M5340 10705 c-7 -8 -16 -12 -21 -9 -5 3 -9 2 -9 -3 0 -4 -10 -13 -23
-19 -12 -6 -77 -43 -144 -82 -68 -40 -127 -72 -133 -72 -5 0 -10 -4 -10 -10 0
-5 -4 -10 -10 -10 -5 0 -55 -27 -111 -60 -55 -33 -105 -60 -110 -60 -5 0 -9
-5 -9 -12 0 -6 -2 -9 -5 -6 -5 5 -155 -79 -182 -102 -7 -5 -14 -10 -17 -10 -7
0 -316 -177 -332 -191 -8 -6 -14 -8 -14 -3 0 5 -4 4 -8 -1 -7 -10 -129 -85
-138 -85 -2 0 -27 -15 -56 -33 -29 -18 -66 -39 -83 -47 -16 -8 -32 -17 -35
-20 -3 -3 -16 -11 -30 -19 -14 -8 -68 -39 -120 -69 -52 -30 -111 -63 -130 -74
-107 -62 -126 -73 -131 -81 -3 -5 -9 -8 -13 -7 -4 0 -49 -24 -101 -55 -52 -30
-97 -55 -100 -55 -4 0 -26 -13 -50 -30 -24 -16 -46 -30 -48 -30 -3 0 -40 -20
-81 -45 -42 -25 -81 -45 -86 -45 -6 0 -10 -4 -10 -10 0 -5 -7 -10 -15 -10 -8
0 -15 -4 -15 -10 0 -5 -6 -10 -13 -10 -7 0 -45 -20 -85 -44 -40 -25 -72 -42
-72 -38 0 4 -4 3 -8 -3 -4 -5 -18 -16 -31 -23 -61 -35 -90 -51 -139 -81 -29
-17 -57 -31 -62 -31 -6 0 -10 -3 -10 -7 0 -5 -10 -13 -23 -19 -49 -23 -112
-59 -115 -66 -2 -5 -7 -8 -12 -8 -4 0 -100 -54 -214 -120 -113 -66 -210 -120
-216 -120 -5 0 -10 -4 -10 -10 0 -5 -4 -10 -8 -10 -5 0 -62 -31 -128 -70 -65
-38 -130 -75 -144 -82 -14 -7 -47 -26 -75 -43 -27 -17 -71 -42 -98 -55 -26
-14 -47 -28 -47 -32 0 -5 -4 -8 -9 -8 -5 0 -91 -47 -191 -105 -101 -58 -187
-105 -191 -105 -5 0 -9 -4 -9 -9 0 -5 -12 -14 -27 -20 -16 -6 -49 -23 -75 -38
-162 -95 -212 -123 -219 -123 -5 0 -8 -1166 -7 -2687 l3 -2686 50 -29 c28 -16
58 -32 68 -35 9 -3 17 -9 17 -14 0 -5 4 -9 10 -9 5 0 44 -21 87 -46 102 -60
78 -46 322 -186 117 -68 225 -130 240 -138 14 -9 55 -32 91 -53 36 -20 72 -42
80 -47 8 -6 29 -17 45 -26 17 -8 48 -26 70 -40 22 -13 52 -30 67 -36 16 -7 28
-16 28 -20 0 -4 5 -8 10 -8 6 0 27 -11 48 -23 20 -13 57 -35 82 -49 25 -14
149 -85 275 -158 127 -73 245 -141 262 -151 18 -11 50 -29 70 -41 21 -12 49
-28 63 -36 14 -7 43 -25 65 -38 22 -13 60 -35 85 -49 25 -14 68 -38 95 -54 28
-17 64 -37 80 -47 17 -9 72 -41 122 -71 51 -30 96 -54 100 -54 5 -1 14 -6 22
-12 7 -6 21 -16 31 -22 41 -23 127 -73 165 -95 22 -12 60 -34 85 -48 25 -14
62 -36 82 -49 21 -12 40 -23 43 -23 3 0 22 -11 43 -24 62 -40 187 -110 187
-105 0 2 7 -2 15 -9 29 -24 179 -109 185 -104 3 3 5 1 5 -4 0 -6 22 -21 50
-35 27 -13 50 -27 50 -31 0 -5 4 -8 9 -8 5 0 65 -32 133 -71 67 -39 143 -83
168 -97 25 -13 50 -28 55 -32 6 -4 30 -19 55 -32 25 -14 117 -67 205 -118 227
-131 226 -131 270 -155 22 -13 87 -51 144 -84 l104 -62 91 52 c50 28 93 56 94
60 2 5 12 9 22 9 10 0 21 4 25 9 3 6 18 16 33 24 15 7 43 23 62 34 181 105
220 128 256 148 79 44 89 50 94 55 3 3 21 14 40 24 107 58 195 111 198 118 2
4 12 8 23 8 10 0 19 4 19 9 0 5 12 14 28 20 15 6 41 20 57 31 17 11 37 23 45
27 8 4 38 20 65 36 28 17 66 39 85 50 102 57 368 212 390 225 14 9 28 17 32
17 4 0 13 6 19 13 7 6 19 12 26 12 7 0 13 4 13 9 0 5 8 11 18 14 9 3 40 19 67
35 190 111 447 259 480 276 22 12 42 24 45 27 3 3 36 23 75 45 38 21 90 51
115 66 25 15 63 37 85 48 22 11 60 34 85 50 25 15 51 29 58 29 6 1 12 6 12 11
0 6 4 10 10 10 5 0 42 19 82 43 40 24 80 46 88 50 8 4 24 13 35 20 11 7 47 27
80 46 33 19 68 41 78 49 9 8 17 12 17 7 0 -4 7 -1 16 6 19 15 50 34 81 48 11
5 24 15 28 20 3 6 15 11 25 11 10 0 20 4 22 8 3 7 70 48 198 120 25 14 62 36
82 49 21 12 42 23 48 23 5 0 10 5 10 11 0 5 5 7 10 4 6 -3 10 -1 10 4 0 6 5
11 10 11 6 0 39 18 75 39 36 22 74 42 85 46 11 3 20 10 20 15 0 5 9 11 20 15
10 3 59 30 107 59 48 29 95 55 103 59 8 5 24 13 35 20 11 7 55 33 98 57 43 25
104 60 135 78 31 18 65 36 75 39 9 3 17 9 17 14 0 5 4 9 9 9 5 0 48 23 95 51
l86 50 -2 2681 -3 2681 -135 79 c-74 43 -143 82 -152 85 -10 3 -18 9 -18 14 0
5 -5 9 -10 9 -10 0 -309 168 -320 180 -3 3 -23 14 -45 25 -22 11 -42 22 -45
25 -5 5 -24 16 -99 57 -25 14 -50 29 -56 33 -5 4 -30 19 -55 32 -25 14 -112
65 -195 113 -82 48 -168 97 -190 110 -22 12 -56 32 -75 44 -19 11 -42 24 -50
28 -8 4 -48 26 -88 50 -40 24 -77 43 -82 43 -6 0 -10 5 -10 10 0 6 -4 10 -10
10 -8 0 -43 19 -220 124 -25 15 -53 29 -62 33 -10 3 -18 8 -18 12 0 4 -16 13
-35 21 -19 8 -35 17 -35 22 0 4 -5 8 -11 8 -6 0 -64 32 -130 70 -66 39 -137
81 -159 93 -22 12 -108 62 -192 111 -84 48 -178 102 -208 119 -30 17 -57 33
-60 36 -3 3 -18 13 -35 21 -16 8 -61 33 -100 56 -61 37 -122 71 -190 108 -11
6 -22 13 -25 16 -3 3 -14 10 -25 16 -73 40 -121 67 -130 74 -5 4 -30 19 -55
32 -74 41 -230 131 -267 154 -13 8 -24 13 -25 12 -2 -2 -17 7 -35 20 -17 12
-36 22 -42 22 -6 0 -11 5 -11 10 0 6 -4 10 -9 10 -4 0 -46 22 -92 50 -46 27
-95 55 -109 60 -13 6 -27 14 -30 18 -3 4 -18 14 -35 23 -94 51 -154 85 -187
106 -21 12 -42 23 -48 23 -5 0 -10 3 -10 8 0 4 -15 13 -32 21 -18 8 -35 17
-38 21 -3 3 -32 21 -65 40 -33 18 -76 42 -95 53 -19 11 -47 28 -62 39 -16 11
-28 16 -28 12 0 -4 -8 0 -17 8 -17 15 -77 48 -86 48 -3 0 -10 -7 -17 -15z
m-2023 -2705 c26 0 56 1 66 1 16 0 141 0 305 -1 37 0 100 0 140 0 99 1 105 -6
127 -150 9 -63 19 -122 20 -130 2 -9 6 -43 10 -75 4 -33 10 -69 12 -80 3 -11
6 -33 9 -50 2 -16 6 -46 9 -65 3 -19 8 -48 10 -65 2 -16 6 -43 9 -60 8 -53 34
-219 41 -260 4 -22 8 -55 10 -74 4 -31 7 -55 20 -131 2 -14 6 -43 10 -65 3
-22 8 -53 11 -70 3 -16 7 -41 8 -55 8 -61 18 -127 22 -150 7 -38 13 -81 19
-120 2 -19 9 -64 15 -100 6 -36 13 -87 16 -114 2 -27 7 -52 9 -56 2 -3 6 -33
10 -65 3 -33 8 -67 11 -76 3 -9 7 -34 10 -55 2 -22 9 -66 15 -99 5 -33 12 -73
13 -90 2 -16 6 -43 9 -60 3 -16 11 -66 17 -110 15 -105 19 -135 25 -165 2 -14
7 -43 10 -65 3 -23 8 -52 11 -65 2 -14 7 -43 9 -65 2 -22 7 -58 11 -80 3 -22
7 -48 7 -57 1 -10 4 -18 7 -18 3 0 6 -17 6 -38 2 -37 8 -84 19 -132 3 -14 7
-47 11 -75 7 -72 9 -84 15 -90 3 -3 6 1 6 7 0 7 3 31 7 53 27 164 38 235 42
265 6 51 22 152 29 190 2 10 6 40 10 67 8 60 13 91 20 123 3 14 7 45 10 70 3
25 8 59 11 75 3 17 7 42 9 56 9 48 18 114 18 132 1 9 4 17 7 17 3 0 5 12 4 28
0 15 3 43 7 62 4 19 10 55 13 80 3 25 8 54 10 65 3 18 15 100 22 150 1 11 3
20 4 20 1 0 3 12 5 26 2 15 6 42 9 60 8 53 15 101 20 139 3 19 7 46 10 60 2
14 8 48 12 75 4 28 9 57 10 65 2 8 6 38 9 65 3 28 9 59 12 70 3 11 7 38 9 60
1 22 3 40 4 40 1 0 4 12 6 28 2 15 6 39 8 55 2 15 5 27 6 27 1 0 3 18 5 40 4
36 8 64 19 125 5 28 14 82 21 138 3 20 7 51 10 67 3 17 7 47 11 69 3 21 7 50
9 65 2 14 5 26 6 26 1 0 3 14 4 30 1 17 5 44 9 60 3 17 9 50 12 75 10 71 12
83 18 120 3 19 8 51 10 70 3 19 7 44 9 55 3 11 7 37 11 57 6 32 11 38 39 43
18 3 41 5 52 5 24 -1 186 -2 200 -2 6 1 19 1 30 2 16 1 116 2 193 1 9 0 46 0
82 0 151 1 212 -2 235 -11 22 -8 27 -23 41 -110 2 -14 6 -38 9 -55 10 -66 23
-154 30 -207 2 -21 7 -50 10 -65 3 -16 7 -48 11 -73 3 -25 7 -52 9 -60 3 -8 7
-35 10 -60 3 -25 10 -74 16 -110 18 -111 28 -180 34 -235 2 -16 4 -30 5 -30 1
0 5 -26 15 -90 2 -16 6 -41 9 -55 7 -37 15 -93 22 -152 3 -29 7 -59 10 -67 3
-8 7 -30 10 -50 2 -20 6 -49 9 -66 3 -16 7 -46 10 -65 3 -19 8 -51 11 -70 3
-19 7 -57 10 -85 3 -27 7 -57 11 -65 3 -8 7 -28 9 -45 2 -16 6 -47 9 -67 3
-21 7 -55 10 -75 3 -21 10 -63 15 -93 5 -30 11 -75 14 -101 3 -25 7 -52 10
-60 3 -7 8 -32 10 -54 9 -73 23 -160 26 -160 0 0 3 -20 5 -45 2 -25 6 -56 9
-70 2 -14 10 -61 16 -105 7 -44 13 -87 15 -95 1 -8 6 -37 9 -65 4 -27 10 -66
13 -85 4 -19 7 -47 7 -62 1 -16 3 -28 6 -28 3 0 7 -12 8 -27 3 -28 4 -39 16
-123 9 -60 14 -102 16 -120 1 -27 17 11 24 61 8 55 17 125 21 159 2 14 4 25 5
25 2 0 4 14 5 30 2 17 4 30 5 30 2 0 4 11 5 25 7 56 50 338 59 385 6 30 18
116 21 150 2 17 4 30 5 30 2 0 4 13 15 90 11 85 14 100 15 100 2 0 6 30 11 83
2 17 7 32 12 32 4 0 5 4 2 10 -3 5 -1 36 4 67 6 32 13 76 16 98 3 22 8 49 10
61 3 11 7 43 10 70 3 27 8 60 11 74 3 14 7 39 9 55 2 17 6 44 10 60 3 17 8 50
10 75 3 25 7 54 9 65 5 18 37 227 51 320 8 62 13 84 21 97 4 7 3 8 -4 4 -9 -5
-9 -1 -3 16 8 22 16 66 27 148 2 19 6 46 9 60 3 14 8 43 10 65 3 22 10 65 15
95 5 30 12 73 15 95 3 23 7 50 9 60 2 11 7 43 11 70 4 28 8 59 10 70 1 11 6
43 10 70 4 28 9 59 11 70 7 38 17 100 18 120 2 32 28 61 59 67 15 3 27 2 27
-1 0 -5 173 -5 305 0 11 0 76 0 143 0 68 -1 128 1 133 5 5 3 9 2 9 -3 0 -4 21
-7 47 -5 91 6 118 -19 101 -99 -4 -20 -10 -51 -12 -70 -3 -19 -9 -59 -15 -89
-5 -30 -12 -71 -15 -90 -3 -19 -10 -58 -15 -87 -6 -29 -13 -74 -17 -100 -3
-26 -8 -57 -11 -68 -2 -11 -6 -33 -9 -50 -15 -92 -35 -203 -39 -225 -3 -14 -8
-43 -11 -65 -10 -70 -12 -79 -23 -143 -7 -34 -14 -77 -16 -95 -3 -18 -7 -43
-10 -57 -3 -14 -8 -41 -11 -60 -3 -19 -14 -84 -24 -143 -11 -60 -22 -130 -26
-155 -3 -26 -8 -50 -10 -53 -1 -3 -6 -28 -9 -55 -4 -27 -10 -62 -14 -79 -4
-16 -7 -38 -5 -47 1 -10 -1 -18 -5 -18 -4 0 -7 -10 -6 -21 1 -12 -5 -53 -12
-93 -8 -39 -16 -86 -19 -105 -3 -18 -7 -41 -9 -50 -12 -65 -19 -110 -20 -131
-2 -14 -3 -25 -4 -25 -4 0 -11 -37 -15 -80 -3 -22 -5 -40 -6 -40 -1 0 -3 -11
-5 -25 -5 -28 -12 -62 -15 -70 -1 -3 -2 -9 -1 -13 1 -8 -8 -67 -23 -143 -2
-12 -7 -39 -11 -60 -12 -82 -16 -100 -22 -129 -11 -52 -14 -79 -14 -102 1 -13
-3 -23 -7 -23 -4 0 -8 -26 -10 -57 -1 -31 -5 -59 -10 -62 -4 -3 -8 -17 -9 -31
-1 -14 -3 -41 -4 -60 -1 -19 -6 -42 -9 -50 -4 -8 -10 -35 -13 -60 -4 -25 -8
-56 -11 -70 -3 -14 -7 -42 -10 -62 -11 -72 -18 -111 -23 -132 -2 -11 -6 -34
-8 -51 -2 -16 -6 -43 -9 -60 -3 -16 -10 -57 -16 -90 -5 -33 -12 -69 -14 -80
-8 -47 -18 -101 -21 -120 -14 -83 -17 -103 -20 -125 -2 -14 -4 -25 -5 -25 -1
0 -3 -11 -5 -25 -4 -28 -10 -68 -19 -117 -13 -72 -18 -99 -21 -123 -3 -22 -18
-110 -29 -166 -2 -12 -7 -44 -11 -72 -3 -29 -10 -64 -14 -79 -4 -16 -7 -36 -5
-45 1 -10 -1 -18 -5 -18 -4 0 -7 -10 -7 -22 -1 -28 -10 -86 -23 -153 -6 -27
-13 -66 -15 -85 -3 -19 -7 -44 -10 -55 -11 -56 -20 -112 -21 -130 0 -11 -4
-34 -8 -52 -9 -36 -37 -47 -106 -42 -22 2 -42 1 -45 -2 -3 -2 -29 -2 -58 1
-29 3 -92 3 -141 0 -48 -3 -87 -1 -87 3 0 5 -4 6 -8 3 -8 -5 -49 -6 -192 -7
-41 0 -79 0 -85 0 -43 -1 -105 3 -127 7 -30 6 -40 26 -53 104 -3 19 -8 51 -11
70 -4 19 -8 49 -10 65 -3 17 -9 50 -14 75 -5 25 -14 79 -20 120 -7 41 -14 86
-16 100 -2 14 -7 41 -10 60 -6 39 -9 59 -18 110 -3 19 -8 49 -11 65 -3 17 -11
71 -20 120 -8 50 -17 104 -19 120 -2 17 -5 30 -6 30 -1 0 -4 14 -6 30 -5 51
-20 145 -29 185 -3 14 -8 43 -10 65 -3 22 -7 51 -10 65 -3 14 -8 43 -11 65 -2
22 -7 46 -9 54 -7 18 -18 99 -19 134 -1 15 -4 27 -8 27 -4 0 -6 8 -6 18 1 9
-2 35 -6 57 -4 22 -9 51 -11 65 -1 14 -7 52 -13 85 -6 33 -13 74 -16 90 -3 17
-7 41 -10 55 -4 24 -24 146 -31 192 -2 13 -6 34 -8 48 -6 29 -27 158 -32 192
-1 13 -6 39 -9 58 -15 81 -26 148 -31 189 -3 23 -7 46 -9 50 -2 3 -7 29 -10
56 -7 50 -13 85 -16 95 -1 3 -2 17 -2 33 -1 15 -5 27 -10 27 -5 0 -6 6 -2 13
5 8 4 9 -4 2 -5 -5 -13 -39 -17 -75 -4 -36 -8 -67 -10 -70 -2 -3 -6 -25 -9
-50 -3 -25 -8 -56 -11 -70 -3 -14 -8 -45 -11 -70 -3 -25 -8 -54 -10 -65 -2
-11 -7 -40 -10 -65 -11 -75 -12 -85 -14 -85 -1 0 -3 -11 -4 -25 -3 -24 -16
-108 -22 -140 -2 -8 -6 -40 -10 -70 -3 -30 -8 -58 -10 -61 -2 -4 -6 -24 -9
-45 -3 -22 -7 -48 -9 -60 -2 -12 -7 -45 -11 -74 -4 -29 -9 -62 -11 -74 -3 -12
-7 -34 -8 -51 -2 -16 -6 -43 -9 -60 -3 -16 -8 -46 -11 -65 -4 -29 -17 -110
-52 -325 -2 -16 -6 -41 -9 -55 -3 -14 -7 -47 -11 -75 -3 -27 -8 -59 -10 -70
-2 -10 -6 -37 -9 -60 -7 -47 -14 -89 -21 -130 -12 -65 -18 -99 -29 -175 -10
-68 -17 -115 -22 -135 -2 -11 -6 -38 -9 -60 -6 -56 -14 -104 -19 -129 -9 -43
-24 -145 -29 -203 -2 -23 -7 -46 -10 -51 -3 -6 -8 -30 -11 -54 -2 -23 -7 -56
-10 -73 -4 -16 -8 -41 -9 -55 -4 -54 -18 -63 -105 -69 -44 -4 -88 -4 -97 0
-10 3 -37 2 -61 -1 -23 -4 -43 -4 -43 -1 0 5 -96 5 -110 0 -3 -1 -9 -1 -14 0
-5 1 -30 2 -55 1 -58 -1 -61 -1 -213 1 -70 0 -131 -2 -136 -5 -16 -9 -60 32
-66 62 -3 15 -8 45 -11 67 -3 23 -8 52 -10 65 -6 29 -11 60 -19 110 -3 19 -8
46 -11 60 -9 41 -17 93 -20 130 -2 19 -5 37 -6 40 -1 3 -3 10 -4 15 -2 6 -4
12 -5 15 -1 3 -3 17 -5 31 -2 15 -6 44 -10 65 -4 22 -8 48 -10 59 -1 11 -5 34
-8 50 -9 46 -36 205 -43 250 -3 22 -9 56 -13 75 -4 20 -7 43 -5 53 1 9 -1 17
-6 17 -4 0 -7 10 -7 23 1 19 -16 128 -30 192 -2 11 -6 36 -9 55 -8 58 -13 84
-18 106 -7 36 -18 97 -21 129 -2 17 -7 41 -10 55 -4 14 -8 36 -10 50 -1 14 -3
25 -4 25 -2 0 -4 16 -6 35 -2 19 -6 46 -8 60 -3 14 -8 39 -11 55 -14 91 -18
112 -22 135 -2 14 -10 63 -18 110 -8 47 -17 99 -20 115 -3 17 -8 46 -11 65 -3
19 -17 100 -31 180 -14 80 -27 161 -30 180 -6 37 -10 62 -17 95 -3 11 -8 40
-11 65 -3 25 -8 54 -10 65 -2 11 -7 40 -11 65 -4 25 -9 54 -11 65 -9 44 -30
170 -39 230 -2 11 -6 34 -9 50 -3 17 -9 48 -11 70 -3 22 -7 47 -10 55 -2 8 -7
35 -10 60 -3 25 -10 68 -15 95 -5 28 -12 66 -16 85 -3 19 -10 60 -15 90 -9 51
-12 66 -24 138 -2 15 -6 36 -8 47 -3 11 -8 43 -12 70 -4 28 -9 60 -11 73 -2
12 -6 32 -8 45 -1 12 -6 36 -9 52 -4 17 -9 47 -12 67 -4 39 -14 98 -22 133 -7
29 -16 97 -17 123 -1 12 -3 22 -6 22 -3 0 -7 15 -8 33 -1 18 -5 44 -8 57 -3
14 -7 39 -10 55 -3 17 -12 68 -20 115 -8 47 -16 99 -19 115 -3 17 -8 46 -11
65 -4 19 -8 47 -10 63 -2 15 -6 39 -9 55 -22 102 -9 127 70 131 27 1 51 4 54
6 2 3 7 2 12 0 4 -3 29 -5 56 -5z"/>
</g>
</svg>
